<svg xmlns="http://www.w3.org/2000/svg" xmlns:xlink="http://www.w3.org/1999/xlink" version="1.1" id="Capa_1" x="0px" y="0px" viewBox="0 0 459.943 459.943" style="enable-background:new 0 0 459.943 459.943;" xml:space="preserve">
<g id="XMLID_236_">
	<path id="XMLID_237_" d="M51.665,313.927c-4.33-29.944,7.522-64.096,26.089-82.858c22.998-23.241,26.123-41.97,23.885-67.358   c-0.4-4.546,4.797-7.535,8.444-4.792c23.188,17.434,32.438,57.426,22.962,87.991c-1.201,3.872,2.23,7.631,6.189,6.755   c8.421-1.864,20.528-6.886,26.764-20.396c1.149-2.489,3.933-3.876,6.523-2.977c13.104,4.551,23.528,16.378,30.248,31.801   c14.232-20.294,26.668-42.929,38.149-65.009c-8.763-17.975-22.002-35.508-40.821-51.208c-62.94-52.506-48.02-98.372-37.865-116.65   c2.115-3.806-1.046-8.418-5.361-7.832c-20.77,2.822-64.638,17.344-74.814,89.033c-0.021,0.148-0.022,0.299-0.041,0.447   C69.093,99.52,50.632,97.418,36.234,97.925c-5.481,0.193-7.094,7.674-2.169,10.086c58.337,28.571-16.112,85.041-29.745,133.146   c-7.909,27.907-4.109,48.708,4.536,64.059C23.311,303.047,26.573,308.27,51.665,313.927z" style="fill: #FF9900;"></path>
	<path id="XMLID_441_" d="M459.668,76.952c1.184-4.754-1.56-9.592-6.25-11.008L409.281,52.62   c-5.288-1.597-10.828,1.842-11.721,7.327c-3.98,24.457-9.95,45.45-15.841,62.114c-4.027,11.393-8.016,20.757-11.309,27.822   c-8.274-2.923-16.789-4.546-25.344-4.546c-20.498,0-41.216,9.291-59.345,32.195c-11.573,14.621-58.154,130.555-114.494,155.38   c-26.671,11.752-53.043,15.905-76.988,15.905c-31.202,0-58.286-7.048-76.582-13.52c-8.393-2.969-15.728,6.633-10.577,13.944   c19.93,28.288,63.431,72.698,145.863,86.544c11.378,1.911,22.698,2.813,33.872,2.813c98.388,0,186.652-69.763,225.763-134.208   c24.371-40.158,34.048-86.894,4.914-121.502c5.576-8.598,10.623-18.04,15.143-27.702   C446.904,124.689,455.916,92.024,459.668,76.952z" style="fill: rgb(232, 5, 50);"></path>
</g>
<g>
</g>
<g>
</g>
<g>
</g>
<g>
</g>
<g>
</g>
<g>
</g>
<g>
</g>
<g>
</g>
<g>
</g>
<g>
</g>
<g>
</g>
<g>
</g>
<g>
</g>
<g>
</g>
<g>
</g>
</svg>
